<?xml version="1.0" standalone="no"?>
<!DOCTYPE svg PUBLIC "-//W3C//DTD SVG 20010904//EN"
 "http://www.w3.org/TR/2001/REC-SVG-20010904/DTD/svg10.dtd">
<svg version="1.0" xmlns="http://www.w3.org/2000/svg"
 width="406.000000pt" height="406.000000pt" viewBox="0 0 406.000000 406.000000"
 preserveAspectRatio="xMidYMid meet">
<metadata>
Created by potrace 1.14, written by Peter Selinger 2001-2017
</metadata>
<g transform="translate(0.000000,406.000000) scale(0.100000,-0.100000)"
fill="#000000" stroke="none">
<path d="M952 3513 l-183 -186 -127 127 -127 127 -3 -255 -2 -256 -252 -252
-252 -253 -1 -1097 c-1 -999 1 -1098 15 -1098 15 0 16 99 16 1089 l0 1090 231
230 c126 127 233 231 236 231 4 0 7 -598 7 -1330 l0 -1330 900 0 900 0 0 279
c0 236 -2 280 -15 284 -8 4 -16 3 -18 -1 -2 -4 -3 -123 -2 -264 l1 -258 -46 0
c-25 -1 -219 -1 -432 -1 -244 0 -388 -3 -388 -9 0 -6 -7 -10 -15 -10 -8 0 -15
4 -15 9 0 5 -97 10 -225 10 -146 1 -225 -2 -225 -9 0 -5 -7 -10 -15 -10 -8 0
-15 5 -15 10 0 6 -45 10 -117 9 -65 0 -146 0 -180 0 l-63 1 0 1330 0 1331 115
117 115 117 442 -446 443 -445 0 -475 c0 -443 1 -474 18 -477 16 -3 17 25 17
481 l0 484 -445 446 c-245 244 -445 449 -445 453 0 5 77 85 171 178 l170 169
567 -568 567 -568 2 -236 c1 -278 -1 -251 18 -251 13 0 15 34 15 248 l0 248
-584 587 c-322 323 -586 587 -588 586 -2 0 -85 -84 -186 -186z m-307 -107 c52
-51 95 -97 95 -101 0 -4 -45 -52 -100 -106 l-100 -100 0 201 c0 110 2 200 5
200 3 0 48 -42 100 -94z"/>
<path d="M1799 1878 c-1 -2 -3 -121 -4 -265 l-1 -263 31 0 32 0 0 98 c0 87 2
97 18 97 11 0 22 -10 26 -25 4 -14 17 -58 29 -97 20 -70 22 -73 52 -73 35 0
35 -8 -5 131 -24 86 -24 87 -5 106 25 25 37 79 33 148 -5 108 -43 145 -149
145 -31 0 -57 -1 -57 -2z m127 -69 c14 -16 18 -36 18 -94 0 -83 -17 -115 -63
-115 l-26 0 1 102 c1 57 2 109 3 116 2 19 46 14 67 -9z"/>
<path d="M2164 1615 l0 -265 98 0 c98 0 98 0 98 25 0 24 -2 25 -65 25 -55 0
-65 3 -66 18 -1 21 -1 142 0 160 1 8 19 12 54 12 61 0 67 3 60 31 -5 16 -14
19 -62 19 l-56 0 2 87 c0 49 2 91 2 96 1 4 30 7 66 7 62 0 65 1 61 23 -3 21
-8 22 -97 25 l-95 3 0 -266z"/>
<path d="M2487 1838 c3 -24 25 -142 48 -263 l41 -220 37 -3 c24 -2 39 1 42 10
4 12 37 188 70 373 8 44 17 95 21 113 6 31 5 32 -25 32 -17 0 -31 -3 -32 -7 0
-5 -2 -15 -4 -23 -1 -8 -6 -32 -9 -53 -3 -21 -17 -103 -31 -183 -14 -80 -25
-151 -26 -157 -1 -13 -34 154 -44 222 -3 25 -8 47 -9 50 -2 3 -7 29 -10 56
-12 88 -15 95 -47 95 -29 0 -29 -1 -22 -42z"/>
<path d="M2890 1615 l0 -265 30 0 30 0 0 265 0 265 -30 0 -30 0 0 -265z"/>
<path d="M3094 1853 c7 -36 54 -290 75 -408 l16 -90 43 -3 c39 -3 42 -1 43 22
1 14 2 29 3 34 1 4 6 30 11 57 4 28 9 55 11 60 3 17 64 347 64 351 0 2 -13 4
-29 4 -24 0 -30 -5 -35 -27 -5 -24 -35 -205 -52 -308 -17 -105 -17 -105 -35 0
-25 137 -30 165 -35 200 -3 17 -9 54 -15 83 -10 49 -12 52 -41 52 -27 0 -29
-2 -24 -27z"/>
<path d="M3555 1848 c-3 -18 -25 -138 -49 -265 l-43 -233 34 0 c27 0 33 4 34
23 1 24 6 59 14 93 4 19 12 22 55 21 55 0 53 3 68 -87 7 -41 10 -45 38 -48
l31 -3 -8 48 c-4 26 -10 62 -13 78 -13 70 -30 160 -41 222 -6 33 -24 131 -31
161 -4 18 -11 22 -44 22 -36 0 -40 -2 -45 -32z m58 -118 c3 -25 11 -76 17
-113 7 -37 10 -71 6 -74 -11 -11 -68 -8 -73 3 -4 11 22 179 33 217 8 25 11 19
17 -33z"/>
<path d="M3879 1858 c-3 -85 -4 -485 -1 -495 3 -9 30 -13 91 -13 86 0 87 0 87
25 0 24 -3 25 -58 25 l-58 0 0 240 0 240 -30 0 c-24 0 -30 -4 -31 -22z"/>
<path d="M2163 1219 c-71 -45 -60 -150 19 -183 20 -9 43 -11 65 -6 42 10 47
15 39 36 -5 13 -14 15 -41 11 -51 -8 -80 20 -76 75 1 23 38 41 79 40 21 -1 35
4 39 14 14 37 -72 46 -124 13z"/>
<path d="M2334 1206 c-38 -38 -42 -67 -20 -121 44 -104 196 -61 196 56 0 46
-56 99 -105 99 -29 0 -45 -8 -71 -34z m120 -50 c8 -33 -8 -73 -33 -81 -20 -6
-60 9 -62 23 0 4 -2 15 -4 26 -13 70 82 101 99 32z"/>
<path d="M2530 1135 l0 -105 60 0 c53 0 60 2 60 20 0 16 -7 20 -35 20 l-35 0
0 85 c0 84 0 85 -25 85 l-25 0 0 -105z"/>
<path d="M2677 1233 c-4 -3 -7 -51 -7 -105 l0 -98 60 0 c53 0 60 2 60 20 0 16
-7 20 -35 20 l-35 0 0 85 c0 76 -2 85 -18 85 -10 0 -22 -3 -25 -7z"/>
<path d="M2815 1135 l-1 -106 60 3 c47 2 60 6 62 21 2 14 -5 17 -36 17 -33 0
-39 3 -37 20 1 16 8 20 34 20 29 0 33 3 33 25 0 23 -3 25 -36 22 -31 -4 -35
-2 -32 17 2 16 10 21 33 21 31 0 35 4 35 30 0 12 -13 15 -57 15 l-58 0 0 -105z"/>
<path d="M3012 1227 c-49 -28 -71 -91 -47 -137 21 -41 56 -61 105 -62 47 0 64
11 54 36 -5 13 -15 16 -41 13 -42 -6 -75 19 -75 56 0 47 42 74 90 56 16 -6 22
-3 28 13 4 13 1 24 -7 29 -20 13 -81 10 -107 -4z"/>
<path d="M3140 1214 c0 -14 4 -23 9 -20 5 4 16 4 24 1 10 -5 13 -23 12 -75 -2
-77 4 -94 31 -88 16 3 18 13 19 83 0 73 2 80 20 80 23 -1 35 13 28 32 -4 9
-26 13 -74 13 -67 0 -69 -1 -69 -26z"/>
<path d="M3300 1135 l0 -105 25 0 25 0 0 103 c0 102 0 103 -25 105 l-25 2 0
-105z"/>
<path d="M3366 1218 c4 -13 23 -60 42 -106 47 -114 61 -111 118 26 42 101 42
102 20 102 -29 0 -38 -11 -63 -79 -22 -59 -23 -59 -53 22 -18 48 -25 57 -46
57 -22 0 -24 -3 -18 -22z"/>
<path d="M3579 1228 c-1 -7 -2 -55 -3 -105 l-2 -93 57 0 c43 0 58 4 63 16 9
23 9 23 -31 26 -27 2 -39 8 -41 21 -3 14 4 17 32 17 32 0 36 3 36 25 0 22 -4
24 -35 21 -31 -2 -36 0 -33 18 2 13 11 21 23 22 50 3 53 4 48 24 -5 17 -14 20
-59 20 -36 0 -54 -4 -55 -12z"/>
<path d="M904 1171 c-2 -2 -4 -179 -4 -393 0 -338 2 -388 15 -388 13 0 15 48
15 375 l0 375 90 0 c280 2 342 2 345 -2 3 -2 11 -413 15 -710 0 -50 30 -55 30
-5 2 115 -6 728 -9 747 -1 6 -491 7 -497 1z"/>
</g>
</svg>
